PathFileType	4	(X/Y/Z)	C:/Users/CLatella/Desktop/xsens/7Novembre/Claudia/Claudia mvnx and c3d/Claudia-022.trc	
DataRate	CameraRate	NumFrames	NumMarkers	Units	OrigDataRate	OrigDataStartFrame	OrigNumFrames	
240.00	240.00	5	64	mm	240.00	140	1113	
Frame#	Time	pHipOrigin			pRightASI			pLeftASI			pRightCSI			pLeftCSI			pRightIschialTub			pLeftIschialTub			pSacrum			pL5SpinalProcess			pL3SpinalProcess			pT12SpinalProcess			pPX			pIJ			pT4SpinalProcess			pT8SpinalProcess			pC7SpinalProcess			pTopOfHead			pRightAuricularis			pLeftAuricularis			pBackOfHead			pRightAcromion			pLeftAcromion			pRightArmLatEpicondyle			pRightArmMedEpicondyle			pLeftArmLatEpicondyle			pLeftArmMedEpicondyle			pRightUlnarStyloid			pRightRadialStyloid			pRightOlecranon			pLeftUlnarStyloid			pLeftRadialStyloid			pLeftOlecranon			pRightTopOfHand			pRightPinky			pRightBallHand			pLeftTopOfHand			pLeftPinky			pLeftBallHand			pRightGreaterTrochanter			pRightKneeLatEpicondyle			pRightKneeMedEpicondyle			pRightPatella			pLeftGreaterTrochanter			pLeftKneeLatEpicondyle			pLeftKneeMedEpicondyle			pLeftPatella			pRightLatMalleolus			pRightMedMalleolus			pRightTibialTub			pLeftLatMalleolus			pLeftMedMalleolus			pLeftTibialTub			pRightHeelFoot			pRightFirstMetatarsal			pRightFifthMetatarsal			pRightPivotFoot			pRightHeelCenter			pRightToe			pLeftHeelFoot			pLeftFirstMetatarsal			pLeftFifthMetatarsal			pLeftPivotFoot			pLeftHeelCenter			pLeftToe			
		X1	Y1	Z1	X2	Y2	Z2	X3	Y3	Z3	X4	Y4	Z4	X5	Y5	Z5	X6	Y6	Z6	X7	Y7	Z7	X8	Y8	Z8	X9	Y9	Z9	X10	Y10	Z10	X11	Y11	Z11	X12	Y12	Z12	X13	Y13	Z13	X14	Y14	Z14	X15	Y15	Z15	X16	Y16	Z16	X17	Y17	Z17	X18	Y18	Z18	X19	Y19	Z19	X20	Y20	Z20	X21	Y21	Z21	X22	Y22	Z22	X23	Y23	Z23	X24	Y24	Z24	X25	Y25	Z25	X26	Y26	Z26	X27	Y27	Z27	X28	Y28	Z28	X29	Y29	Z29	X30	Y30	Z30	X31	Y31	Z31	X32	Y32	Z32	X33	Y33	Z33	X34	Y34	Z34	X35	Y35	Z35	X36	Y36	Z36	X37	Y37	Z37	X38	Y38	Z38	X39	Y39	Z39	X40	Y40	Z40	X41	Y41	Z41	X42	Y42	Z42	X43	Y43	Z43	X44	Y44	Z44	X45	Y45	Z45	X46	Y46	Z46	X47	Y47	Z47	X48	Y48	Z48	X49	Y49	Z49	X50	Y50	Z50	X51	Y51	Z51	X52	Y52	Z52	X53	Y53	Z53	X54	Y54	Z54	X55	Y55	Z55	X56	Y56	Z56	X57	Y57	Z57	X58	Y58	Z58	X59	Y59	Z59	X60	Y60	Z60	X61	Y61	Z61	X62	Y62	Z62	X63	Y63	Z63	X64	Y64	Z64	

140	0.579	45.56056	213.70700	937.34381	132.45822	102.15490	1002.64904	108.01495	340.99148	1001.85714	105.85043	119.73505	1079.41040	85.47224	318.87111	1078.72409	-8.49971	157.74617	897.90727	-18.68880	257.31421	897.53772	-18.68880	207.26622	970.39238	26.02706	212.75672	1037.91492	44.66307	214.81566	1149.15026	63.87981	216.66342	1246.76494	231.02318	225.47989	1304.46794	255.04410	227.01089	1422.72478	106.85350	219.67263	1429.42952	85.68341	218.40560	1343.58773	120.36857	221.62598	1482.69789	310.21302	231.33994	1683.94568	237.93909	157.53500	1610.77427	242.10976	297.96499	1600.63797	189.95004	230.97039	1629.09352	155.10651	27.61086	1443.47252	131.13839	418.17518	1423.35830	218.56398	47.51391	1106.22936	205.26008	111.12975	1108.44668	184.72351	377.94674	1085.11207	188.47183	313.69738	1094.50926	248.92008	36.16336	867.86792	283.44686	72.27393	870.13803	195.12378	58.86445	1106.12377	199.08327	359.57470	844.53331	248.55053	354.24258	849.86543	161.70567	350.96940	1086.80145	320.87726	-34.57957	718.62146	267.39771	-22.64830	787.04149	255.67762	30.14493	836.82550	282.12703	412.63189	682.88044	267.29213	424.40478	768.51106	230.81201	388.82215	821.51547	71.42924	63.08791	912.90055	42.18179	49.73122	523.92002	23.54578	122.69147	516.95132	73.27700	99.04010	519.69656	24.91840	365.22357	911.73910	-38.01113	358.41324	526.61248	-28.08600	283.71082	520.38288	8.97485	324.41440	519.37981	14.62372	38.22230	115.66997	15.99635	98.24820	112.29120	94.97502	87.16162	486.27845	-58.86445	373.93445	119.10153	-50.52312	314.54207	114.87807	29.14186	329.64093	488.54856	-32.36225	63.82702	11.87848	134.35877	84.83872	0.10559	126.86213	7.65502	6.96871	152.67802	45.03263	2.27011	9.13323	59.12842	4.27625	219.03911	38.43347	0.00000	-101.67976	338.51020	14.57093	66.20271	347.85460	3.95949	44.82145	422.50423	9.60837	77.02532	390.35315	5.64888	-61.60970	350.54705	7.12709	141.11631	408.83078	3.53715 
141	0.583	45.29659	213.65421	937.34381	132.29984	102.10211	1002.59625	107.85657	340.99148	1001.75156	105.74484	119.73505	1079.35760	85.41945	318.87111	1078.67129	-8.81647	157.69338	897.96006	-18.95277	257.26141	897.64330	-18.89998	207.21343	970.49796	25.92148	212.75672	1037.96771	44.71587	214.81566	1149.15026	64.09098	216.66342	1246.71215	231.33994	225.47989	1304.15118	255.62482	227.01089	1422.35523	107.38143	219.67263	1429.32393	86.05297	218.40560	1343.53493	121.05488	221.62598	1482.59230	311.21610	231.33994	1683.52334	238.78378	157.53500	1610.51030	243.00724	297.96499	1600.26841	190.90032	230.97039	1628.82955	155.68724	27.61086	1443.31414	131.71911	418.17518	1423.19992	218.77515	47.40832	1106.01819	205.47125	111.02416	1108.23550	184.98748	378.05233	1084.90089	188.73580	313.85576	1094.29809	248.92008	35.95219	867.70954	283.49965	72.06276	869.92686	195.33495	58.75887	1105.96539	199.29445	359.73308	844.32214	248.76170	354.40096	849.65426	161.96963	351.12778	1086.59028	320.93005	-34.73795	718.35749	267.45051	-22.80668	786.83031	255.73041	29.93376	836.61433	282.39099	412.79027	682.66927	267.50330	424.51037	768.29989	231.02318	388.92773	821.30429	71.16528	63.03512	912.90055	42.07620	49.67843	523.92002	23.44019	122.58588	516.95132	73.17142	98.98731	519.74936	24.65444	365.22357	911.73910	-38.16951	358.41324	526.61248	-28.24438	283.71082	520.38288	8.81647	324.46720	519.37981	14.62372	38.22230	115.66997	15.99635	98.24820	112.29120	94.92223	87.10883	486.33124	-58.86445	373.98725	119.10153	-50.57592	314.59486	114.87807	28.98348	329.69373	488.60135	-32.36225	63.87981	11.87848	134.41157	84.78593	0.10559	126.86213	7.60223	6.96871	152.67802	44.97983	2.27011	9.13323	59.12842	4.27625	219.09191	38.32789	0.00000	-101.73256	338.61578	14.57093	66.14992	347.85460	3.90670	44.82145	422.50423	9.60837	76.97253	390.30036	5.59608	-61.60970	350.59985	7.12709	141.11631	408.77799	3.48435 
142	0.587	45.08542	213.65421	937.29102	132.08866	102.10211	1002.49066	107.75098	340.93868	1001.64597	105.63925	119.73505	1079.30481	85.36665	318.87111	1078.61850	-9.08044	157.69338	898.06565	-19.26953	257.26141	897.69610	-19.11115	207.21343	970.55076	25.81589	212.75672	1037.96771	44.76866	214.81566	1149.15026	64.30216	216.66342	1246.71215	231.65670	225.47989	1303.83442	256.15276	227.01089	1421.93288	107.96216	219.67263	1429.21835	86.42252	218.35280	1343.48214	121.68840	221.57319	1482.48672	312.21917	231.28714	1683.04820	239.62847	157.48221	1610.19354	243.90473	297.91220	1599.89886	191.79781	230.97039	1628.56559	156.26796	27.61086	1443.20855	132.29984	418.17518	1423.04154	218.98632	47.30273	1105.85981	205.68243	110.91858	1108.07712	185.25145	378.21071	1084.74251	188.99977	313.96134	1094.03412	248.97288	35.74102	867.49837	283.49965	71.85159	869.66289	195.59892	58.60049	1105.80701	199.50562	359.89145	844.11097	248.97288	354.50655	849.44308	162.23360	351.23336	1086.37910	320.93005	-34.94912	718.14632	267.45051	-23.01785	786.61914	255.78320	29.72259	836.40316	282.65496	412.89586	682.45810	267.76727	424.61596	768.08872	231.28714	389.08611	821.09312	70.90131	62.98232	912.90055	41.97062	49.57284	523.92002	23.33461	122.53309	516.95132	73.06583	98.93451	519.74936	24.44327	365.17078	911.73910	-38.32789	358.46604	526.61248	-28.40276	283.76362	520.33008	8.65809	324.51999	519.32701	14.67652	38.22230	115.66997	16.04914	98.24820	112.29120	94.81664	87.05604	486.33124	-58.91725	374.04004	119.04874	-50.62871	314.64766	114.82528	28.77231	329.69373	488.60135	-32.30946	63.87981	11.87848	134.41157	84.73314	0.10559	126.86213	7.54943	6.91591	152.67802	44.92704	2.27011	9.18602	59.12842	4.27625	219.09191	38.27509	0.00000	-101.73256	338.66858	14.51814	66.09713	347.85460	3.90670	44.82145	422.55702	9.55557	76.97253	390.30036	5.59608	-61.66249	350.65264	7.12709	141.11631	408.77799	3.48435 
143	0.592	44.82145	213.60141	937.29102	131.87749	102.04932	1002.43787	107.59260	340.88589	1001.54038	105.58646	119.73505	1079.25202	85.31386	318.87111	1078.51291	-9.39720	157.64059	898.11844	-19.53350	257.20862	897.74889	-19.32232	207.21343	970.65634	25.65751	212.75672	1038.02051	44.82145	214.81566	1149.15026	64.51333	216.66342	1246.71215	231.97346	225.42710	1303.46487	256.68069	226.95810	1421.56333	108.54288	219.61984	1429.11276	86.84486	218.35280	1343.42935	122.37471	221.57319	1482.32834	313.22224	231.23435	1682.57306	240.47317	157.48221	1609.87678	244.80221	297.85941	1599.47652	192.69529	230.97039	1628.30162	156.84869	27.61086	1443.05017	132.88056	418.12239	1422.88316	219.19749	47.19715	1105.64863	205.89360	110.81299	1107.86595	185.51541	378.31629	1084.53134	189.26373	314.06693	1093.82295	249.02567	35.52984	867.28720	283.55244	71.64041	869.39893	195.81009	58.49490	1105.64863	199.76959	359.99704	843.84700	249.18405	354.61213	849.23191	162.49756	351.33895	1086.16793	320.98284	-35.10750	717.88235	267.50330	-23.22902	786.35517	255.78320	29.51142	836.19198	282.91892	413.05424	682.24692	268.03123	424.72154	767.87754	231.49832	389.19170	820.88195	70.63734	62.98232	912.95334	41.81224	49.52005	523.97282	23.28181	122.48030	516.95132	72.96025	98.82893	519.74936	24.17930	365.17078	911.73910	-38.53906	358.46604	526.61248	-28.61393	283.76362	520.33008	8.44692	324.51999	519.32701	14.67652	38.16951	115.61718	16.04914	98.19541	112.29120	94.71106	87.00324	486.38404	-58.97004	374.09283	119.04874	-50.68150	314.70045	114.82528	28.61393	329.74652	488.60135	-32.30946	63.87981	11.82568	134.46436	84.73314	0.10559	126.91493	7.54943	6.91591	152.73082	44.92704	2.27011	9.18602	59.12842	4.27625	219.14470	38.27509	0.00000	-101.78535	338.72137	14.51814	66.04433	347.90739	3.90670	44.76866	422.55702	9.55557	76.91974	390.35315	5.59608	-61.71529	350.70543	7.07429	141.06351	408.77799	3.48435 
144	0.596	44.55749	213.54862	937.29102	131.71911	101.99652	1002.33228	107.43422	340.88589	1001.43480	105.48088	119.68225	1079.19923	85.26107	318.87111	1078.46012	-9.71395	157.58779	898.22403	-19.85025	257.15583	897.85448	-19.53350	207.16064	970.70914	25.55192	212.70393	1038.02051	44.87425	214.81566	1149.20305	64.72450	216.66342	1246.65935	232.34301	225.42710	1303.14811	257.26141	226.90531	1421.14098	109.12361	219.61984	1429.00717	87.26721	218.35280	1343.37655	123.06102	221.57319	1482.16996	314.27810	231.18156	1682.09792	241.37065	157.42941	1609.50723	245.75249	297.85941	1599.10696	193.64557	230.97039	1628.03765	157.48221	27.61086	1442.94459	133.51408	418.12239	1422.67199	219.46146	47.09156	1105.49025	206.15757	110.70741	1107.65478	185.77938	378.42188	1084.32017	189.52770	314.17252	1093.55898	249.02567	35.26588	867.07602	283.55244	71.42924	869.13496	196.02127	58.38931	1105.43746	199.98076	360.15542	843.63583	249.39522	354.71772	848.96795	162.76153	351.44454	1085.95676	321.03564	-35.31867	717.61839	267.55609	-23.44019	786.14400	255.83600	29.30024	835.92802	283.13010	413.15982	682.03575	268.29520	424.87992	767.66637	231.76228	389.29728	820.61798	70.37338	62.92953	912.95334	41.70665	49.41446	523.97282	23.17623	122.37471	516.95132	72.85466	98.72334	519.80215	23.91533	365.11798	911.73910	-38.75023	358.46604	526.55968	-28.77231	283.76362	520.33008	8.23574	324.51999	519.32701	14.72931	38.16951	115.61718	16.10194	98.19541	112.34400	94.60547	86.95045	486.38404	-59.07563	374.14563	118.99594	-50.73429	314.75324	114.82528	28.45555	329.74652	488.60135	-32.25666	63.82702	11.82568	134.51715	84.73314	0.10559	126.96772	7.49664	6.91591	152.78361	44.92704	2.27011	9.23882	59.12842	4.27625	219.14470	38.22230	0.00000	-101.89094	338.77416	14.51814	65.99154	347.90739	3.85391	44.71587	422.60981	9.50278	76.86694	390.35315	5.54329	-61.76808	350.75823	7.07429	141.01072	408.83078	3.43156 
